<svg id="logo" xmlns="http://www.w3.org/2000/svg" viewBox="0 0 406.42 50.6"><defs><style>.cls-1{fill:#0a377e;}.cls-2{fill:#231815;}</style></defs><title>eri_logo</title><path class="cls-1" d="M5.11,17.75c5.71-6.52,10.48-10.94,18.77-11s11.3,0.82,15.58,4.56,7.38,9.93,11.21,10.2,12.75-9.29,17.4-9.2c5.37,0.11,11,10.29,14.58,10.29s15-10,24.6-10,11.73,5.24,19.51,5.6c10.2,0.48,22.9-.5,27.22.59,2,0.5,1.55,5.37-.18,7.2a53.5,53.5,0,0,1-6.47,5.74c-3.64,2.92-7.56,6.92-13.85,6.92-17.13,0-17.76-11.48-24.87-11.3S91.48,39.88,83.1,39.8C72,39.7,72.71,29.87,69,29.68c-3.46-.18-13.57,14.58-21.5,14.58-11.48,0-12.95-19-21.69-18.77-7.56.18-10.34,11.27-13.8,12.73C9.25,39.36,2.77,36.65,1.2,34.06-1.55,29.54.72,22.76,5.11,17.75Z"/><path class="cls-2" d="M226.67,15.23a29.31,29.31,0,0,0-3.51-.26,51,51,0,0,1-1.48,10.53,37.26,37.26,0,0,1-4,10.16,33.17,33.17,0,0,0,10.18,9,18,18,0,0,0-3.82,5.57,42.54,42.54,0,0,1-9.75-9.69c-3.23,3.79-6.62,6.5-12.55,9.92a17.63,17.63,0,0,0-4.06-5.17c6.42-2.93,10-5.65,13.36-10a44.49,44.49,0,0,1-4.08-11,36.08,36.08,0,0,1-3.12,4.06,15,15,0,0,0-3.25-4.85,21.08,21.08,0,0,0,2.85-3.73,26.81,26.81,0,0,0-3.13-.15h-4.1a57.79,57.79,0,0,1-4.36,4H196a14.49,14.49,0,0,0,3.24-.17l2.06,2.69c-0.75.76-1.13,1.19-1.13,1.19a46.35,46.35,0,0,1-5.44,5.42v0.59c2.92-.39,4.53-0.66,8.8-1.43l0.07,4.86c-4.32.88-5.94,1.15-8.85,1.54l0,6.8c0,3.73-1.39,4.59-7.44,4.61-0.92,0-1.62,0-3.51-.1a15.61,15.61,0,0,0-1.2-5.29,36.74,36.74,0,0,0,5.72.36c0.86,0,1-.17,1-1.08V39l-8,.78a24.94,24.94,0,0,0-2.86.39l-0.77-5.45h1.51c1.78,0,5.62-.29,10.1-0.68a12.5,12.5,0,0,0-.23-3.08h1.3a18.2,18.2,0,0,0,3.07-3l-7.51,0c-2.1,1.36-3.61,2.23-5.77,3.36a13.54,13.54,0,0,0-3.47-4,56.72,56.72,0,0,0,12.4-7.6l-6.21,0a41,41,0,0,0-5,.28V14.83a32.73,32.73,0,0,0,5.08.31h4.54V10.86h-3.24a30.69,30.69,0,0,0-4.37.23V6a32,32,0,0,0,4.48.26h3.13V4.71a25.47,25.47,0,0,0-.28-3.83l6,0a18.77,18.77,0,0,0-.26,3.89V6.2h1.89A17.62,17.62,0,0,0,198.08,6v4.16a31.07,31.07,0,0,0,3.71-7.3l5,2.36c-3.54,6.27-3.54,6.27-6.45,9.9a18.56,18.56,0,0,0,3.24-.17v4.64a49.6,49.6,0,0,0,6-19l5.78,1.17c-0.32,1.35-.32,1.35-1,4-0.16.7-.48,1.89-1.12,4.22l7.88,0a33.17,33.17,0,0,0,5.4-.34Zm-32.62-.12a34.41,34.41,0,0,0,3.44-4.17c-0.54-.05-1.46-0.1-2.16-0.1H193v4.27h1.08Zm17.6-.05c-0.54,1.24-.75,1.68-1.18,2.65a44.25,44.25,0,0,0,3.87,12.46,28.41,28.41,0,0,0,2.09-5.78A42.5,42.5,0,0,0,217.76,15Z"/><path class="cls-2" d="M257.75,3.91a15.37,15.37,0,0,0-.33-3.56l6.59,0a18.21,18.21,0,0,0-.26,3.51v0.7l15.93,0a37.84,37.84,0,0,0,6.16-.34l0,5.67a47.15,47.15,0,0,0-5.78-.25l-7.13,0a123.74,123.74,0,0,1,12.34,8.5l-4.2,4a64.2,64.2,0,0,0-5-4.36c-9.34.84-18.84,1.35-30.67,1.6-0.54,0-1.35.06-2.32,0.06a14.36,14.36,0,0,1-1.73.06,12.77,12.77,0,0,0-1.94.17l-0.66-5.4a38.21,38.21,0,0,0,4.27.15h5.08a25.71,25.71,0,0,0,3.17-4.71l-8.53,0a46.42,46.42,0,0,0-5.83.29l0-5.67a38.59,38.59,0,0,0,6.27.31l14.58,0V3.91Zm-8.31,40.36c0,2.48.12,4.43,0.29,6.1l-6.37,0a56.41,56.41,0,0,0,.3-6.8l0-16.79a34.93,34.93,0,0,0-.29-5.4c1.3,0.1,3.19.15,6.1,0.14l24-.07,4.48-.07a5.73,5.73,0,0,1,.7-0.06c0.16-.05.38-0.06,0.65-0.11a54.1,54.1,0,0,0-.2,5.78l0,17.17c0,2.38-.48,3.73-1.66,4.6-1,.76-2.37,1-5.34,1-1.19,0-2.65,0-5.83-.15a26,26,0,0,0-1.47-5.07,66.3,66.3,0,0,0,6.64.36c1.57,0,2-.33,2-1.41V41.4l-24,.07v2.81Zm24-17.89-24,.07v2.81l24-.07V26.38Zm-24,10.33,24-.07v-2.7l-24,.07v2.7Zm8.24-27.08c-0.7,1.14-2.1,3.14-3.28,4.65,4.37-.12,11.45-0.41,16-0.69-1.35-.91-1.89-1.24-3.79-2.42l2.91-1.57Z"/><path class="cls-2" d="M295.22,23.24a20,20,0,0,0,3,.21,7.94,7.94,0,0,0,1-.06c1-1.3,1.61-2.11,2.58-3.52a53.58,53.58,0,0,0-6.77-8.4L297.93,7c0.87,1,1.14,1.29,1.79,2a32.8,32.8,0,0,0,4-9L309,2.31a10.55,10.55,0,0,0-1,1.84,69.29,69.29,0,0,1-5,8.76c0.87,1.08,1.3,1.67,1.9,2.53a48.45,48.45,0,0,0,5-9.3L315,8.72l-1.4,2.11c-0.05.11-.21,0.32-0.43,0.7a4.37,4.37,0,0,0-.43.65,20.68,20.68,0,0,0,6.62-6.55,22.13,22.13,0,0,0,2.58-5l5.25,2.52a2.4,2.4,0,0,0-.27.43c-0.32.49-.32,0.49-0.59,0.92-3.81,6.65-5.7,8.87-10.06,12.29a13.29,13.29,0,0,0-3.74-4.31c-5,7.68-5.43,8.28-7.37,10.71,2.7-.12,3.24-0.17,5.62-0.39a27.87,27.87,0,0,0-1.58-3.51l3.61-1.63a50.72,50.72,0,0,1,4,10.46l-4.15,1.58c-0.22-1.08-.27-1.4-0.49-2.32-0.59.06-.59,0.06-1.62,0.22-0.32,0-.76.06-2.16,0.22l0,17a37.56,37.56,0,0,0,.34,5.67L303,50.6a41.61,41.61,0,0,0,.31-5.67l0-16.69c-6.43.45-6.43,0.45-7.4,0.67ZM302,31.43a66.91,66.91,0,0,1-2.17,16.15l-4.65-2c1.44-4.65,1.92-7.84,2.23-14.8Zm8.89,10.5a49.53,49.53,0,0,0-1.49-10.47l4-1.09a48.8,48.8,0,0,1,1.65,9,29.32,29.32,0,0,0,1.11-7L321,33.48a48.3,48.3,0,0,1-3.31,14l-4.92-2.85a30.17,30.17,0,0,0,1.83-3.89Zm27.82-13.8c-1.09-2.27-1.36-2.86-2.12-4.26-4,.66-4.21.71-10,1.27A48.31,48.31,0,0,1,334.5,31l-3.77,4a28.49,28.49,0,0,0-8.44-6.89l3.34-2.82c-6.53.67-7.72,0.78-8.8,0.94l-0.77-5.67a10.85,10.85,0,0,0,1.84.1c0.43,0,.7,0,1.67-0.06a40.9,40.9,0,0,0,2.85-5A37.15,37.15,0,0,0,325.58,8l5.57,1.71-2.26,4.38a67.72,67.72,0,0,1-3.38,6.17c5.24-.39,5.94-0.45,8.64-0.78a56.46,56.46,0,0,0-3.31-4.74l4.31-2.39A93.22,93.22,0,0,1,343.56,25Zm-11.22,3.65a24.73,24.73,0,0,0-.21,3.46l0,8c0,1.19.11,1.24,2.54,1.23a3.9,3.9,0,0,0,2.37-.55c0.59-.65.7-1.57,0.74-5.67a11.27,11.27,0,0,0,4.86,1.61c-0.68,8.86-1.43,9.62-9.31,9.64-2.7,0-4.48-.31-5.4-0.9-0.7-.48-1-1.35-1-2.91l0-9.88a33.41,33.41,0,0,0-.28-4Zm7.25-31.4a27.49,27.49,0,0,0,5.09,6.2,26,26,0,0,0,5.84,4.14,17,17,0,0,0-3.12,5.14A37,37,0,0,1,331,4.46q-0.16-.16-1-1.29Zm5.49,30.17a66.88,66.88,0,0,1,5.33,13.54l-5.29,2.55a51.63,51.63,0,0,0-4.74-14Z"/><path class="cls-2" d="M361.6,7.66a30.3,30.3,0,0,0-4.64.28l0-5.83a35.61,35.61,0,0,0,5.24.31l9.45,0a28.48,28.48,0,0,0,5.18-.34l0,5.78a39.47,39.47,0,0,0-4.64-.2h-2.75a44.47,44.47,0,0,1-3.37,11.67l6.53,0a25.56,25.56,0,0,0,3.24-.17,28.75,28.75,0,0,0-.15,3.94l0.05,18.58a40.29,40.29,0,0,0,.17,4.21l-5.35,0V43.39h-4.64l0,5.4-5.83,0a39.62,39.62,0,0,0,.31-5.51l0-9.88c0-2.11,0-2.32.09-5.24a21.13,21.13,0,0,1-3.39,5A19.53,19.53,0,0,0,355,26.53c3-3,5-6.28,6.83-11.58a30.55,30.55,0,0,0,1.82-7.3h-2Zm4.3,31h4.7l0-14.15h-4.7Zm17-31.21a28.25,28.25,0,0,0-4.43.28l0-5.89a36.78,36.78,0,0,0,5.94.31L400,2.1a43,43,0,0,0,5.78-.34l0,5.89a33.35,33.35,0,0,0-5.29-.25l0,12.8H401a33.68,33.68,0,0,0,5.4-.29l0,6a35,35,0,0,0-5.4-.25h-0.43l0.05,17.6A54.66,54.66,0,0,0,401,50l-6.43,0a64.38,64.38,0,0,0,.31-6.64l-0.05-17.66-6.26,0a53.11,53.11,0,0,1-1.26,10.8,30.89,30.89,0,0,1-6.6,14,14.05,14.05,0,0,0-5.09-3.82,26.87,26.87,0,0,0,6.23-12.44,42.23,42.23,0,0,0,1-8.54,35.57,35.57,0,0,0-5.29.29l0-6a34.05,34.05,0,0,0,5.4.25ZM394.84,20.2l0-12.8-6.16,0,0,12.8Z"/></svg>