<svg id="レイヤー_1" data-name="レイヤー 1" xmlns="http://www.w3.org/2000/svg" viewBox="0 0 377.26 51.71"><defs><style>.cls-1{fill:#0a377e;}.cls-2{fill:#0e0000;}</style></defs><title>logo</title><path class="cls-1" d="M114.1,413.85c5.07-5.78,9.29-9.71,16.65-9.79s10,.73,13.82,4,6.55,8.81,9.94,9.05,11.31-8.24,15.44-8.16c4.77.09,9.78,9.13,12.93,9.13s13.34-8.89,21.82-8.89,10.41,4.65,17.31,5c9,.42,20.31-.45,24.15.53,1.75.44,1.38,4.77-.16,6.38a47.47,47.47,0,0,1-5.74,5.09c-3.23,2.59-6.71,6.14-12.28,6.14-15.2,0-15.76-10.18-22.06-10s-15.19,11.15-22.62,11.08c-9.87-.09-9.22-8.81-12.54-9-3.07-.16-12,12.93-19.07,12.93-10.18,0-11.49-16.84-19.24-16.65-6.71.16-9.17,10-12.24,11.29-2.43,1-8.17-1.39-9.57-3.68C108.19,424.3,110.2,418.29,114.1,413.85Z" transform="translate(-109.56 -394.85)"/><path class="cls-2" d="M268.4,413.85c-2.09,0-3.83.12-4.91.24v-3.38a27.88,27.88,0,0,0,5,.32l6.26,0,0-6.48h-4.4a29.57,29.57,0,0,0-4.57.24v-3.33a22.61,22.61,0,0,0,4.63.27h4.34v-2.09a21.22,21.22,0,0,0-.35-4.12h3.95a15.92,15.92,0,0,0-.33,4.17v2h3a19.06,19.06,0,0,0,3.66-.24v3.21a30.85,30.85,0,0,0-3.5-.16H278l0,6.48h1.86c4.33-4.36,8-9.5,9.27-13l3.39,1.63c-4.6,6.84-5.39,7.91-8.59,11.36h2.2a20,20,0,0,0,3.78-.24V414a22.9,22.9,0,0,0-3.78-.22h-5a73.46,73.46,0,0,1-6.58,5.66l6.2,0a19.71,19.71,0,0,0,4.06-.24l1.87,2-.23.23c-.34.34-.34.34-1.07,1.13a41.34,41.34,0,0,1-6,5.49v2c4.06-.52,7.65-1.09,12.21-2v3.16c-4.68.86-8.49,1.49-12.21,2l0,8.51c0,3.1-1,3.78-5.35,3.79-1.35,0-3,0-4.74-.21a12.3,12.3,0,0,0-.63-3.49,40.69,40.69,0,0,0,6,.49c1.13,0,1.41-.23,1.41-1.19l0-7.5c-3,.29-3.95.41-9.53.87a19.44,19.44,0,0,0-2.76.35l-.57-3.61c.62.05,1.24.05,1.8.05,2,0,7-.36,11.05-.82v-.34a17.81,17.81,0,0,0-.24-3.78h1.35a23.5,23.5,0,0,0,4.56-4.19l-11,0c-2.25,1.47-3.43,2.15-6.14,3.63a9.82,9.82,0,0,0-2.26-2.53,67.92,67.92,0,0,0,14.52-9.46Zm44.93-5a21.54,21.54,0,0,0-3.89-.33,56.22,56.22,0,0,1-1.94,11.51,43.33,43.33,0,0,1-4.71,11.07,37,37,0,0,0,11.88,12,10,10,0,0,0-2.7,3.22,42.51,42.51,0,0,1-11.2-12.15c-3.43,4.63-7.2,7.92-13.72,12.16a10.29,10.29,0,0,0-2.66-3.09c7-3.8,11-7.25,14.51-12.39a58.23,58.23,0,0,1-5.06-14.59,44.15,44.15,0,0,1-4.1,6.5,9.58,9.58,0,0,0-2.54-2.42c3.82-4.63,6.4-10.23,8.29-18.18a38.64,38.64,0,0,0,1.28-7.11l3.84.83c-.22.73-.22.73-.67,2.43-.5,2-1.39,5.53-1.9,7.22l9.92,0a26.65,26.65,0,0,0,5.36-.35Zm-16.3-.29c-.5,1.47-.62,1.75-1.12,3a53.51,53.51,0,0,0,5,15.94c3-5.59,4.54-11.29,5.13-19Z" transform="translate(-109.56 -394.85)"/><path class="cls-2" d="M342.62,399a22.42,22.42,0,0,0-.35-4.12h4.23a22,22,0,0,0-.33,4.12v1.35l18.27-.05a39.08,39.08,0,0,0,5.81-.35v3.72a45,45,0,0,0-5.64-.27l-23.74.07a61.23,61.23,0,0,1-4.83,7.06c7.61-.19,13.08-.49,21.14-1.13a50.06,50.06,0,0,0-6.1-3.54l2.81-1.87a96.48,96.48,0,0,1,14.69,9.83l-2.59,2.6a58.68,58.68,0,0,0-5.31-4.44q-15.81,1.65-35.41,2a18,18,0,0,0-2.54.18l-.69-3.72a61.9,61.9,0,0,0,6.32.21c1.13,0,1.75,0,3.67-.07a41.82,41.82,0,0,0,4.89-7.12l-10.94,0a56.41,56.41,0,0,0-5.69.3v-3.72a39.12,39.12,0,0,0,5.81.32l16.52,0Zm-11,36.63v4.51a45.15,45.15,0,0,0,.3,6.2h-4.12a53.33,53.33,0,0,0,.32-6.43l-.05-17.59a37.73,37.73,0,0,0-.3-5.41,59.77,59.77,0,0,0,6.54.21l22-.06a50.55,50.55,0,0,0,6.09-.24,51.71,51.71,0,0,0-.21,5.92l.05,18.33c0,3.38-1.34,4.46-5.63,4.47-.4,0-2.65,0-6.71-.21a10.3,10.3,0,0,0-.86-3.38,60.65,60.65,0,0,0,7.22.49c2.14,0,2.48-.23,2.48-1.64l0-5.24Zm27.08-15.53-27.12.08v4.62l27.12-.08Zm-27.1,7.69v4.85l27.12-.08v-4.85Z" transform="translate(-109.56 -394.85)"/><path class="cls-2" d="M380.46,419.79a1.74,1.74,0,0,1,.56-.06c2.25-3.05,2.25-3.05,3.88-5.37a50.45,50.45,0,0,0-8-9l2-2.6c1.3,1.35,1.53,1.57,2.6,2.64,2.53-4,4.43-8,5-10.5l3.5,1.68a26.17,26.17,0,0,0-1.8,3.22,67.61,67.61,0,0,1-4.66,7.79c1.53,1.74,1.75,2,3.23,3.94,3.26-5,4.72-7.68,5.55-10.11l3.39,1.85a24.57,24.57,0,0,0-1.8,2.71,133.91,133.91,0,0,1-9.26,13.62,85.27,85.27,0,0,0,8.85-.7,36.28,36.28,0,0,0-2.61-4.9l2.37-1.19a51,51,0,0,1,4.94,10.25l-2.76,1.25c-.4-1.3-.57-1.8-.85-2.65l-5.36.58.05,18.72a39,39,0,0,0,.35,5.58h-3.95A40.55,40.55,0,0,0,386,441l-.05-18.38-4.12.29a34.16,34.16,0,0,0-4.45.41l-.52-3.72a15.33,15.33,0,0,0,2.65.22Zm2.67,6.59c-.54,7.33-1.38,11.4-3.22,16.59l-3-1.4c1.9-4.86,2.63-8.47,3.06-15.74ZM394,425.17a67,67,0,0,1,2.28,10.31l-2.93,1.08a49.79,49.79,0,0,0-2.06-10.6ZM408.14,397a20,20,0,0,0-1,1.86,48.22,48.22,0,0,1-4.27,6.78,29.51,29.51,0,0,1-5.68,5.37,8.56,8.56,0,0,0-2.6-2.53,24,24,0,0,0,7.54-7.52,18.88,18.88,0,0,0,2.58-5.36Zm-13,44.31A33.16,33.16,0,0,0,399,427.46l3.16.67a47.22,47.22,0,0,1-4,14.84Zm27.58-18.69c-1.42-2.59-1.87-3.38-2.83-4.9-7,1-8.68,1.21-18.49,2.08a15.68,15.68,0,0,0-3.21.46l-.69-3.66c.73.05,1.13.05,1.69.05.79,0,1,0,2.93-.12,3.59-5.82,5.55-9.77,6.67-13.72l3.56,1.4c-2.86,5.7-4.77,9.26-6.56,12.09,5.19-.41,7.84-.7,12.35-1.28a54,54,0,0,0-4.08-5.29l2.7-1.53a104,104,0,0,1,9,12.55Zm-14.48,4.67a32.54,32.54,0,0,0-.27,4.34l0,8.91c0,.68.12.9.4,1.07a7.76,7.76,0,0,0,3.1.44c2.93,0,4.34-.29,4.79-1s.73-2.26.88-6.43a7.11,7.11,0,0,0,3.16,1.18c-.76,8.74-1.21,9.25-9.11,9.27-5.24,0-6.49-.66-6.5-3.53l0-9.7a29,29,0,0,0-.35-4.57Zm-.58-6.77a43.08,43.08,0,0,1,8.42,6.74l-2.42,2.54a32.48,32.48,0,0,0-8.42-7.14Zm9-25.23a29.32,29.32,0,0,0,11.76,12.15,11.42,11.42,0,0,0-2.19,3A38.89,38.89,0,0,1,414.75,399c-.68-1.07-.85-1.29-1.3-1.91Zm5.33,31.17a66,66,0,0,1,6.13,13.4l-3.27,1.7A52.62,52.62,0,0,0,419,427.74Z" transform="translate(-109.56 -394.85)"/><path class="cls-2" d="M440.64,400.73a24.11,24.11,0,0,0-4.85.35v-3.83a30.31,30.31,0,0,0,5.08.32l9.19,0a22,22,0,0,0,4.74-.35v3.72a36.88,36.88,0,0,0-4.57-.21h-3.5A55.16,55.16,0,0,1,442.88,415l7,0a25.73,25.73,0,0,0,3.5-.18,41.61,41.61,0,0,0-.16,4.51l0,17.43a36.89,36.89,0,0,0,.24,4.74H450v-2.82l-7,0,0,6H439.3a34.18,34.18,0,0,0,.32-5.47l0-12.52c0-2,0-3.78.15-6.32a25.82,25.82,0,0,1-4.21,6.89,9.4,9.4,0,0,0-2-3.38c3.32-3.73,5.73-8.14,7.74-14.35a39.44,39.44,0,0,0,1.89-8.86Zm2.36,35,7,0L449.93,418l-7,0Zm19.47-35A36.8,36.8,0,0,0,457,401v-3.89a34.49,34.49,0,0,0,5.7.32l17.82-.05a37.62,37.62,0,0,0,5.64-.35v3.89a29.67,29.67,0,0,0-5.47-.32h-1.35l0,15.62h1.81a29.87,29.87,0,0,0,5.64-.35v4a36.6,36.6,0,0,0-5.64-.32h-1.81l.06,20.24a42.86,42.86,0,0,0,.41,6H475.5a42.39,42.39,0,0,0,.38-6l-.06-20.24-9.3,0c-.53,12.58-2.93,19.41-9.34,26.87a10.24,10.24,0,0,0-3.28-2.53c5.9-5.66,8.53-12.71,9-24.33h-1.58a31.37,31.37,0,0,0-5.58.35V416a36.61,36.61,0,0,0,5.58.27H463c0-.62,0-.9,0-1.41l0-14.21Zm4.16,13.69c0,.73,0,.9,0,1.92l9.19,0,0-15.62-9.19,0Z" transform="translate(-109.56 -394.85)"/></svg>